<svg width="33" height="33" viewBox="0 0 33 33" fill="none" xmlns="http://www.w3.org/2000/svg">
<circle opacity="0.5" cx="23" cy="23" r="10" fill="url(#paint0_linear_1276_2751)"/>
<path d="M21.9091 21.9091V19H24.0909V21.9091H27V24.0909H24.0909V27H21.9091V24.0909H19V21.9091H21.9091Z" fill="#E30412"/>
<path fill-rule="evenodd" clip-rule="evenodd" d="M15.4356 27.8466H10.0845C5.21129 27.8466 1.00092 27.8466 1 25.214V24.6874C1 19.7535 5.07599 15.7401 10.0847 15.7401H15.4356C17.2747 15.7401 18.988 16.2812 20.4199 17.2102C19.7789 17.3848 19.1806 17.6629 18.6441 18.0255C17.671 17.5721 16.5834 17.3182 15.4365 17.3182H10.0854C5.94733 17.3182 2.57992 20.6233 2.57992 24.6864V25.2129C2.57992 26.2667 7.46313 26.2667 10.0854 26.2667H15.4365C15.9246 26.2667 16.4404 26.2667 16.9639 26.2628C17.3558 26.8665 17.8534 27.3954 18.4304 27.8231C17.4955 27.8466 16.4885 27.8466 15.4356 27.8466ZM20.2391 8.10544C20.2391 12.024 17.0051 15.212 13.0281 15.212C9.05195 15.212 5.81709 12.024 5.81709 8.10544C5.81709 4.187 9.05119 1 13.0281 1C17.005 1 20.2391 4.187 20.2391 8.10544ZM13.0281 13.6328C16.1335 13.6328 18.6599 11.1525 18.6599 8.10544C18.6599 5.0585 16.1335 2.579 13.0281 2.579C9.92253 2.579 7.39609 5.05742 7.39609 8.10544C7.39609 11.1535 9.92238 13.6328 13.0281 13.6328Z" fill="#333333"/>
<path d="M1 25.214H0.9L0.9 25.214L1 25.214ZM20.4199 17.2102L20.4462 17.3067L20.6619 17.248L20.4743 17.1263L20.4199 17.2102ZM18.6441 18.0255L18.6019 18.1162L18.6532 18.1401L18.7001 18.1084L18.6441 18.0255ZM16.9639 26.2628L17.0478 26.2084L17.0179 26.1624L16.9632 26.1628L16.9639 26.2628ZM18.4304 27.8231L18.4329 27.9231L18.7233 27.9158L18.4899 27.7428L18.4304 27.8231ZM10.0845 27.9466H15.4356V27.7466H10.0845V27.9466ZM0.9 25.214C0.900241 25.9039 1.17849 26.4261 1.67275 26.8146C2.16194 27.1991 2.85871 27.4499 3.69572 27.6156C5.36943 27.947 7.65181 27.9466 10.0845 27.9466V27.7466C7.64401 27.7466 5.38458 27.7462 3.73457 27.4194C2.90972 27.2561 2.24915 27.0133 1.79634 26.6574C1.34861 26.3054 1.10022 25.8404 1.1 25.214L0.9 25.214ZM0.9 24.6874V25.214H1.1V24.6874H0.9ZM10.0847 15.6401C5.02221 15.6401 0.9 19.6969 0.9 24.6874H1.1C1.1 19.8102 5.12977 15.8401 10.0847 15.8401V15.6401ZM15.4356 15.6401H10.0847V15.8401H15.4356V15.6401ZM20.4743 17.1263C19.0267 16.1871 17.2945 15.6401 15.4356 15.6401V15.8401C17.2548 15.8401 18.9493 16.3753 20.3655 17.2941L20.4743 17.1263ZM18.7001 18.1084C19.2277 17.7518 19.816 17.4783 20.4462 17.3067L20.3936 17.1137C19.7419 17.2912 19.1335 17.574 18.5881 17.9427L18.7001 18.1084ZM15.4365 17.4182C16.5685 17.4182 17.6417 17.6687 18.6019 18.1162L18.6864 17.9349C17.7002 17.4754 16.5982 17.2182 15.4365 17.2182V17.4182ZM10.0854 17.4182H15.4365V17.2182H10.0854V17.4182ZM2.67992 24.6864C2.67992 20.6803 6.0008 17.4182 10.0854 17.4182V17.2182C5.89386 17.2182 2.47992 20.5664 2.47992 24.6864H2.67992ZM2.67992 25.2129V24.6864H2.47992V25.2129H2.67992ZM10.0854 26.1667C8.77332 26.1667 6.90137 26.1666 5.35779 26.0353C4.58513 25.9696 3.90106 25.8715 3.41238 25.7263C3.16743 25.6535 2.97895 25.571 2.85369 25.4799C2.72902 25.3892 2.67992 25.3003 2.67992 25.2129H2.47992C2.47992 25.389 2.58343 25.5306 2.73605 25.6416C2.88809 25.7522 3.10159 25.8426 3.35542 25.918C3.86429 26.0692 4.56491 26.1686 5.34084 26.2346C6.89445 26.3667 8.77526 26.3667 10.0854 26.3667V26.1667ZM15.4365 26.1667H10.0854V26.3667H15.4365V26.1667ZM16.9632 26.1628C16.4401 26.1667 15.9247 26.1667 15.4365 26.1667V26.3667C15.9246 26.3667 16.4407 26.3667 16.9646 26.3628L16.9632 26.1628ZM18.4899 27.7428C17.9225 27.3221 17.4332 26.8021 17.0478 26.2084L16.88 26.3173C17.2785 26.931 17.7843 27.4686 18.3708 27.9034L18.4899 27.7428ZM15.4356 27.9466C16.4882 27.9466 17.4966 27.9466 18.4329 27.9231L18.4279 27.7231C17.4945 27.7466 16.4888 27.7466 15.4356 27.7466V27.9466ZM13.0281 15.312C17.059 15.312 20.3391 12.0806 20.3391 8.10544H20.1391C20.1391 11.9674 16.9513 15.112 13.0281 15.112V15.312ZM5.71709 8.10544C5.71709 12.0806 8.99811 15.312 13.0281 15.312V15.112C9.1058 15.112 5.91709 11.9674 5.91709 8.10544H5.71709ZM13.0281 0.9C8.99735 0.9 5.71709 4.13039 5.71709 8.10544H5.91709C5.91709 4.24361 9.10502 1.1 13.0281 1.1V0.9ZM20.3391 8.10544C20.3391 4.13039 17.0588 0.9 13.0281 0.9V1.1C16.9511 1.1 20.1391 4.24361 20.1391 8.10544H20.3391ZM18.5599 8.10544C18.5599 11.0956 16.08 13.5328 13.0281 13.5328V13.7328C16.1869 13.7328 18.7599 11.2095 18.7599 8.10544H18.5599ZM13.0281 2.679C16.08 2.679 18.5599 5.1155 18.5599 8.10544H18.7599C18.7599 5.0015 16.1869 2.479 13.0281 2.479V2.679ZM7.49609 8.10544C7.49609 5.11444 9.97596 2.679 13.0281 2.679V2.479C9.8691 2.479 7.29609 5.00041 7.29609 8.10544H7.49609ZM13.0281 13.5328C9.97583 13.5328 7.49609 11.0965 7.49609 8.10544H7.29609C7.29609 11.2104 9.86893 13.7328 13.0281 13.7328V13.5328Z" fill="#333333"/>
<defs>
<linearGradient id="paint0_linear_1276_2751" x1="31" y1="17.5" x2="15" y2="29.5" gradientUnits="userSpaceOnUse">
<stop stop-color="#FF7E7E"/>
<stop offset="1" stop-color="white"/>
</linearGradient>
</defs>
</svg>
